/* XPM */
static const char * font_8x8_xpm[] = {
"64 96 2 1",
" 	c #FFFFFF",
".	c #000000",
"           ..    ..  ..  .. ..     ..             ...      ..   ",
"          ....   ..  ..  .. ..    ..... ..   ..  .. ..     ..   ",
"          ....    .  .  .......  ..     ..  ..    ...     ..    ",
"           ..            .. ..    ....     ..    ... ..         ",
"           ..           .......      ..   ..    .. ...          ",
"                         .. ..   .....   ..  .. ..  ..          ",
"           ..            .. ..     ..   ..   ..  ... ..         ",
"                                                                ",
"    ..    ..                                                 .. ",
"   ..      ..    ..  ..    ..                               ..  ",
"  ..        ..    ....     ..                              ..   ",
"  ..        ..  ........ ......          ......           ..    ",
"  ..        ..    ....     ..                            ..     ",
"   ..      ..    ..  ..    ..      ..              ..   ..      ",
"    ..    ..                       ..              ..   .       ",
"                                  ..                            ",
"  ...      ..    .....   .....     ...  .......   ...   ....... ",
" .. ..    ...   ..   .. ..   ..   ....  ..       ..     ..   .. ",
"..   ..    ..        ..      ..  .. ..  ..      ..          ..  ",
".. . ..    ..      ...    ....  ..  ..  ......  ......     ..   ",
"..   ..    ..     ..         .. .......      .. ..   ..   ..    ",
" .. ..     ..    ..  .. ..   ..     ..  ..   .. ..   ..   ..    ",
"  ...    ...... .......  .....     ....  .....   .....    ..    ",
"                                                                ",
" .....   .....                       ..          ..      .....  ",
"..   .. ..   ..    ..      ..       ..            ..    ..   .. ",
"..   .. ..   ..    ..      ..      ..    ......    ..       ..  ",
" .....   ......                   ..                ..     ..   ",
"..   ..      ..                    ..              ..      ..   ",
"..   ..     ..     ..      ..       ..   ......   ..            ",
" .....   ....      ..      ..        ..          ..        ..   ",
"                          ..                                    ",
" .....    ...   ......    ....  .....   ....... .......   ....  ",
"..   ..  .. ..   ..  ..  ..  ..  .. ..   ..   .  ..   .  ..  .. ",
".. .... ..   ..  ..  .. ..       ..  ..  .. .    .. .   ..      ",
".. .... .......  .....  ..       ..  ..  ....    ....   ..      ",
".. .... ..   ..  ..  .. ..       ..  ..  .. .    .. .   ..  ... ",
"..      ..   ..  ..  ..  ..  ..  .. ..   ..   .  ..      ..  .. ",
" ....   ..   .. ......    ....  .....   ....... ....      ... . ",
"                                                                ",
"..   ..   ....     .... ...  .. ....    ..   .. ..   ..  .....  ",
"..   ..    ..       ..   ..  ..  ..     ... ... ...  .. ..   .. ",
"..   ..    ..       ..   .. ..   ..     ....... .... .. ..   .. ",
".......    ..       ..   ....    ..     ....... .. .... ..   .. ",
"..   ..    ..   ..  ..   .. ..   ..   . .. . .. ..  ... ..   .. ",
"..   ..    ..   ..  ..   ..  ..  ..  .. ..   .. ..   .. ..   .. ",
"..   ..   ....   ....   ...  .. ....... ..   .. ..   ..  .....  ",
"                                                                ",
"......   .....  ......    ....   ...... ..   .. ..   .. ..   .. ",
" ..  .. ..   ..  ..  ..  ..  ..  ...... ..   .. ..   .. ..   .. ",
" ..  .. ..   ..  ..  ..   ..     . .. . ..   .. ..   .. ..   .. ",
" .....  ..   ..  .....     ..      ..   ..   .. ..   .. .. . .. ",
" ..     ..   ..  .. ..      ..     ..   ..   .. ..   .. .. . .. ",
" ..     ..  ...  ..  ..  ..  ..    ..   ..   ..  .. ..  ....... ",
"....     .....  ...  ..   ....    ....   .....    ...    .. ..  ",
"            ...                                                 ",
"..   ..  ..  .. .......   ....  ..        ....     .            ",
"..   ..  ..  .. ..   ..   ..     ..         ..    ...           ",
" .. ..   ..  .. .   ..    ..      ..        ..   .. ..          ",
"  ...     ....     ..     ..       ..       ..  ..   ..         ",
" .. ..     ..     ..  .   ..        ..      ..                  ",
"..   ..    ..    ..  ..   ..         ..     ..                  ",
"..   ..   ....  .......   ....        .   ....                  ",
"                                                        ........",
"  ..            ...                ...            ....          ",
"   ..            ..                 ..           ..  ..         ",
"    ..   ....    .....   .....   .....   .....   ..      ... .. ",
"            ..   ..  .. ..   .. ..  ..  ..   .. .....   ..  ..  ",
"         .....   ..  .. ..      ..  ..  .......  ..     ..  ..  ",
"        ..  ..   ..  .. ..   .. ..  ..  ..       ..      .....  ",
"         ... .. .. ...   .....   ... ..  .....  ....        ..  ",
"                                                        .....   ",
"...        ..        .. ...       ...                           ",
" ..                      ..        ..                           ",
" .. ..    ...        ..  ..  ..    ..   ... ..  .. ...   .....  ",
" ... ..    ..        ..  .. ..     ..   .......  ..  .. ..   .. ",
" ..  ..    ..        ..  ....      ..   .. . ..  ..  .. ..   .. ",
" ..  ..    ..    ..  ..  .. ..     ..   .. . ..  ..  .. ..   .. ",
"...  ..   ....   ..  .. ...  ..   ....  .. . ..  ..  ..  .....  ",
"                  ....                                          ",
"                                  ..                            ",
"                                  ..                            ",
".. ...   ... .. .. ...   ...... ......  ..  ..  ..   .. ..   .. ",
" ..  .. ..  ..   ... .. ..        ..    ..  ..  ..   .. .. . .. ",
" ..  .. ..  ..   ..      .....    ..    ..  ..  ..   .. .. . .. ",
" .....   .....   ..          ..   .. .. ..  ..   .. ..  ....... ",
" ..         ..  ....    ......     ...   ... ..   ...    .. ..  ",
"....       ....                                                 ",
"                            ...    ..    ...     ... ..         ",
"                           ..      ..      ..   .. ...          ",
"..   .. ..   ..  ......    ..      ..      ..                   ",
" .. ..  ..   ..  .  ..   ...       ..       ...                 ",
"  ...   ..   ..    ..      ..      ..      ..                   ",
" .. ..   ......   ..  .    ..      ..      ..                   ",
"..   ..      ..  ......     ...    ..    ...                    ",
"        ......                                                  ",
};
