/* XPM */
static const char * font_6x10_xpm[] = {
/* width height ncolors chars_per_pixel */
"48 120 2 1",
/* colors */
"  c white",
". c black",
/* pixels */
"             . .                            .   ",
"        .    . .          .          ..     .   ",
"        .    . .   . .   ....  .   ..  .    .   ",
"        .         ..... . .   . . . .  .        ",
"        .          . .   ...   . .   ..         ",
"        .          . .    . .   . . .  . .      ",
"                  ..... ....   . . ..   .       ",
"        .          . .    .   .   .  ... .      ",
"                                                ",
"                                                ",
"   .   .                                      . ",
"  .     .                                     . ",
" .       .    .     .                        .  ",
" .       .  . . .   .                        .  ",
" .       .   ...  .....       .....         .   ",
" .       .  . . .   .                       .   ",
" .       .    .     .                      .    ",
"  .     .                 .           .    .    ",
"   .   .                 .                .     ",
"                                                ",
"                                                ",
" ...    .    ...   ...     .  .....   ..  ..... ",
".   .  ..   .   . .   .   ..  .      .        . ",
".   .   .       .     .  . .  .     .        .  ",
". . .   .     ..    ..  .  .  ....  ....     .  ",
".   .   .    .        . .....     . .   .   .   ",
".   .   .   .     .   .    .  .   . .   .   .   ",
" ...   ...  .....  ...     .   ...   ...   .    ",
"                                                ",
"                                                ",
"                                                ",
" ...   ...                                 ...  ",
".   . .   .                 .       .     .   . ",
".   . .   .   .     .     ..  .....  ..       . ",
" ...   ....             ..             ..    .  ",
".   .     .               ..  .....  ..     .   ",
".   .    .    .     .       .       .           ",
" ...   ..          .                        .   ",
"                                                ",
"                                                ",
"                                                ",
" ....   .   ....   ...  ...   ..... .....  ...  ",
".    .  .   .   . .   . .  .  .     .     .   . ",
". .. . . .  .   . .     .   . .     .     .     ",
". .. . . .  ....  .     .   . ....  ....  .  .. ",
". .... ...  .   . .     .   . .     .     .   . ",
".     .   . .   . .   . .  .  .     .     .   . ",
" ......   . ....   ...  ...   ..... .      .... ",
"                                                ",
"                                                ",
"                                                ",
".   .  ...    ... .   . .     .   . ..  .  ...  ",
".   .   .       . .  .  .     .   . ..  . .   . ",
".   .   .       . . .   .     .. .. . . . .   . ",
".....   .       . ..    .     .. .. . . . .   . ",
".   .   .       . . .   .     . . . . . . .   . ",
".   .   .       . .  .  .     . . . .  .. .   . ",
".   .  ...  ....  .   . ..... .   . .  ..  ...  ",
"                                                ",
"                                                ",
"                                                ",
"....   ...  ....   ...  ..... .   . .   . .   . ",
".   . .   . .   . .   .   .   .   . .   . . . . ",
".   . .   . .   . .       .   .   . .   . . . . ",
"....  .   . ....   ...    .   .   .  . .  . . . ",
".     .   . .   .     .   .   .   .  . .   . .  ",
".     .  .. .   . .   .   .   .   .   .    . .  ",
".      .... .   .  ...    .    ...    .    . .  ",
"                                                ",
"                                                ",
"                   ...  .      ...              ",
".   . .   . .....  .    .        .    .         ",
".   . .   .     .  .     .       .   . .        ",
" . .  .   .    .   .     .       .  .   .       ",
"  .    ...    .    .      .      .              ",
" . .    .    .     .      .      .              ",
".   .   .   .      .       .     .              ",
".   .   .   .....  .       .     .              ",
"                   ...      .  ...        ......",
"                                                ",
"            .               .         ...       ",
"  .         .               .        .          ",
"   .        .               .        .          ",
"       ...  ....   ....  ....  ...  ....   ...  ",
"          . .   . .     .   . .   .  .    .   . ",
"       .... .   . .     .   . .....  .    .   . ",
"      .   . .   . .     .   . .      .    .   . ",
"       .... ....   ....  ....  ....  .     .... ",
"                                              . ",
"                                           ...  ",
".                  .     ..                     ",
".       .      .   .      .                     ",
".                  .      .                     ",
"....   ..     ..   .  .   .   .. .  ....   ...  ",
".   .   .      .   . .    .   . . . .   . .   . ",
".   .   .      .   ..     .   . . . .   . .   . ",
".   .   .      .   . .    .   . . . .   . .   . ",
".   .   .      .   .  .   .   . . . .   .  ...  ",
"               .                                ",
"            ...                                 ",
"                                                ",
"                         .                      ",
"                         .                      ",
"....   .... . ..   ....  ...  .   . .   . .   . ",
".   . .   . ..  . .      .    .   . .   . . . . ",
".   . .   . .      ...   .    .   .  . .  . . . ",
".   . .   . .         .  .    .   .  . .   . .  ",
"....   .... .     ....    ...  ....   .    . .  ",
".         .                                     ",
".         .                                     ",
"                     .    .    .                ",
"                    .     .     .               ",
"                    .     .     .               ",
".   . .   . .....   .     .     .               ",
" . .  .   .    .   .      .      .   ..  .      ",
"  .   .   .   .     .     .     .   .  ..       ",
" . .  .   .  .      .     .     .               ",
".   .  .... .....   .     .     .               ",
"          .          .    .    .                ",
"       ...                                      "
};
