/* XPM */
static const char * font_4x6_xpm[] = {
"32 72 2 1",
" 	c #FFFFFF",
".	c #000000",
"     .  . . . .  .  .    .   .  ",
"     .  . . .......   . . .  .  ",
"     .      . . ..   .   .      ",
"            ....  . .   . .     ",
"     .      . . ...   .  . .    ",
"                 .              ",
"  . .   . .  .                . ",
" .   .   .   .                . ",
" .   .  ... ...     ...      .  ",
" .   .   .   .              .   ",
" .   .  . .  .   .       .  .   ",
"  . .           .               ",
" .   .   .  ... . . ...  .. ... ",
". . ..  . .   . . . .   .     . ",
"...  .    .  .  ... ..  ..   .  ",
". .  .   .    .   .   . . . .   ",
" .  ... ... ..    . ..   .  .   ",
"                                ",
" ..  .            .     .   ..  ",
". . . .  .   .   .  ...  .    . ",
" .   ..         .         .  .  ",
". .   .          .  ...  .      ",
"..  ..   .   .    .     .    .  ",
"            .                   ",
" ..  .  ..   .  ..  ... ...  .. ",
". . . . . . . . . . .   .   .   ",
". . ... ..  .   . . ..  ..  . . ",
".   . . . . . . . . .   .   . . ",
" .. . . ..   .  ..  ... .    .. ",
"                                ",
". . ...   . . . .   . .   .  .  ",
". .  .    . . . .   ... . . . . ",
"...  .    . ..  .   ... ... . . ",
". .  .  . . . . .   . . . . . . ",
". . ...  .  . . ... . . .    .  ",
"                                ",
"..   .  ..   .. ... . . . . . . ",
". . . . . . .    .  . . . . . . ",
"..  . . ..   .   .  . . . . ... ",
".   . . . .   .  .  . . . . ... ",
".    .  . . ..   .  ...  .  . . ",
"      .                         ",
". . . . ... ... .   ...  .      ",
". . . .   . .   .     . . .     ",
" .   .   .  .    .    .         ",
". .  .  .   .     .   .         ",
". .  .  ... ...   . ...         ",
"                            ... ",
" .      .         .       .     ",
"  .  .. ..   ..  ..  .   .   .. ",
"    . . . . .   . . . . ... . . ",
"    . . . . .   . . ..   .   .. ",
"     .. ..   ..  ..  ..  .    . ",
"                            ..  ",
".    .    . .   ..              ",
"..          . .  .  . . ..   .  ",
". . ..    . ..   .  ... . . . . ",
". .  .    . . .  .  . . . . . . ",
". . ...   . . . ... . . . .  .  ",
"        ..                      ",
"                 .              ",
"..   .. . .  .. ... . . . . . . ",
". . . . ..  ..   .  . . . . . . ",
"..  . . .     .  .  . . . . ... ",
".    .. .   ..    .  ..  .  . . ",
".     .                         ",
"              .  .  .    . .    ",
". . . . ...  .   .   .  . .     ",
" .  . .   . ..   .   ..         ",
" .   ..  .   .   .   .          ",
". .   . ...  .   .   .          ",
"    ..        .     .           ",
};
