/* XPM */
static const char * font_5x7_xpm[] = {
/* width height ncolors chars_per_pixel */
"40 84 2 1",
/* colors */
"  c white",
". c black",
/* pixels */
"       .   . .           .           .  ",
"       .   . .  . .  ... .  .  .     .  ",
"       .   . . ...... .    .  . .    .  ",
"       .        . .  ...  .    .        ",
"               .....  . ..  . . .       ",
"       .        . .  ...    .  . .      ",
"                                        ",
"  .   .                                 ",
" .     .   . .   .                    . ",
" .     .    .    .                   .  ",
" .     .   ... .....     ....       .   ",
" .     .    .    .    ..       ..  .    ",
"  .   .    . .   .    .        ..       ",
"                     .                  ",
"  .    .   ..  ....   .  ....  ..  .... ",
" . .  ..  .  .    .  ..  .    .       . ",
" . .   .     .  ..  . .  ...  ...    .  ",
" . .   .    .     . ....    . .  .   .  ",
" . .   .   .   .  .   .  .  . .  .  .   ",
"  .   ... ....  ..    .   ..   ..   .   ",
"                                        ",
" ..   ..                             .  ",
".  . .  .  ..   ..     .       .    . . ",
" ..  .  .  ..   ..    .  ....   .     . ",
".  .  ...            .           .   .  ",
".  .    .  ..   ..    .  ....   .       ",
" ..   ..   ..   .      .       .     .  ",
"               .                        ",
" ..   ..  ...   ..  ...  .... ....  ..  ",
".  . .  . .  . .  . .  . .    .    .  . ",
". .. .  . ...  .    .  . ...  ...  .    ",
". .. .... .  . .    .  . .    .    . .. ",
".    .  . .  . .  . .  . .    .    .  . ",
" ..  .  . ...   ..  ...  .... .     ... ",
"                                        ",
".  .  ...    . .  . .    .  . .  .  ..  ",
".  .   .     . . .  .    .... .. . .  . ",
"....   .     . ..   .    .... .. . .  . ",
".  .   .     . ..   .    .  . . .. .  . ",
".  .   .  .  . . .  .    .  . . .. .  . ",
".  .  ...  ..  .  . .... .  . .  .  ..  ",
"                                        ",
"...   ..  ...   ..   ... .  . .  . .  . ",
".  . .  . .  . .  .   .  .  . .  . .  . ",
".  . .  . .  .  .     .  .  . .  . .  . ",
"...  .  . ...    .    .  .  . .  . .... ",
".    .. . . .  .  .   .  .  .  ..  .... ",
".     ..  .  .  ..    .   ..   ..  .  . ",
"        .                               ",
".  .  . . ....  ...       ...   .       ",
".  .  . .    .  .   .       .  . .      ",
" ..   . .   .   .    .      .           ",
" ..    .   .    .     .     .           ",
".  .   .  .     .      .    .           ",
".  .   .  ....  ...       ...      .... ",
"                                        ",
" .        .            .        .       ",
"  .       .            .       . .      ",
"      ... ...   ..   ...  ..   .    ... ",
"     .  . .  . .    .  . . .. ...  .  . ",
"     . .. .  . .    .  . ..    .    ..  ",
"      . . ...   ..   ...  ..   .   .    ",
"                                    ... ",
".      .     . .     ..                 ",
".              .      .                 ",
"...   ..     . . .    .  . .  ...   ..  ",
".  .   .     . ..     .  .... .  . .  . ",
".  .   .     . . .    .  .  . .  . .  . ",
".  .  ...  . . .  .  ... .  . .  .  ..  ",
"            .                           ",
"                     .                  ",
"                     .                  ",
"...   ... ...   ... ...  .  .  . . .  . ",
".  . .  . .  . ..    .   .  .  . . .  . ",
".  . .  . .      ..  .   .  .  . . .... ",
"...   ... .    ...    ..  ...   .  .... ",
".       .                               ",
"                  .   .   .    . .      ",
"                 .    .    .  . .       ",
".  . .  . ....  ..    .    ..           ",
" ..  .  .   .    .    .    .            ",
" ..   . .  .     .    .    .            ",
".  .   .  ....    .   .   .             ",
"      .                                 "
};
